<svg width="17" height="25" viewBox="0 0 42.1875 60" fill="none" xmlns="http://www.w3.org/2000/svg" xmlns:xlink="http://www.w3.org/1999/xlink">
	<desc>
			Created with Pixso.
	</desc>
	<defs/>
	<path id="Vector" d="M0 21.0938C0 31.5135 7.9548 42.8185 14.974 52.5876C16.6425 54.9086 18.2407 57.1315 19.6311 59.2172C19.9573 59.7064 20.5067 60 21.0936 60C21.6806 60 22.23 59.7064 22.5561 59.2172C23.9466 57.1315 25.5448 54.9084 27.2133 52.5876C34.2327 42.8185 42.1875 31.5135 42.1875 21.0938C42.1875 9.46191 32.7256 0 21.0938 0C9.46194 0 0 9.46191 0 21.0938ZM31.6406 21.0938C31.6406 26.9097 26.9096 31.6406 21.0938 31.6406C15.2779 31.6406 10.5469 26.9097 10.5469 21.0938C10.5469 15.2778 15.2779 10.5469 21.0938 10.5469C26.9096 10.5469 31.6406 15.2778 31.6406 21.0938Z" fill="#FFE4DD" fill-opacity="1.000000" fill-rule="nonzero"/>
</svg>
